<svg id="eFH6QRf7x2a1" xmlns="http://www.w3.org/2000/svg" xmlns:xlink="http://www.w3.org/1999/xlink" viewBox="0 0 300 300" shape-rendering="geometricPrecision" text-rendering="geometricPrecision" project-id="f132afa97aa54aacb0c1578a0a81b77b" export-id="41ba5d434d624b63aef8570d67970ffe" cached="false"><path d="M9.259454,212.817401l69.002142-85.276234l42.312636,27.991436l55.98287-72.256962l52.07709,61.19058l16.27409-11.066381l48.82227,79.417561h-284.471098Z" transform="translate(.000001 0)" stroke="#000" stroke-width="0.6"/><path d="M176.557103,93.040093l6.509636,40.359744l1.95289,11.066384v17.576018l25.387581,14.321197v0l24.736618,6.509639v0l-31.897217-34.826557v-20.505354l-20.179872-16.27409-6.509636-18.226981Z" transform="translate(0 0.000003)" fill="#fffcfc" stroke="#fdfdfe" stroke-width="0.6"/><path d="M250.115991,177.014403l14.321199-.650964-14.321199-14.321202-5.207708-17.576021-22.132764,10.740906l27.340472,21.807281v0Z" transform="translate(0 0.000005)" fill="#fcf5f5" stroke="rgba(63,87,135,0)" stroke-width="0.6"/><path d="M81.516415,136.003696l-30.59529,40.522488-11.066382,14.809419h11.066382l11.066381-21.481801l14.972163-9.113487l4.556746-24.736619Z" transform="translate(-3.25482 0)" fill="#fff" stroke="#fbfbfb" stroke-width="0.6"/><path d="M169.396503,102.153586l-39.057817,53.053541L144.659885,150L150,136.003696l19.396503-33.85011Z" fill="#fffbfb" stroke="#fff" stroke-width="0.6"/></svg>
