<svg id="ePhWr1oBpg71" xmlns="http://www.w3.org/2000/svg" xmlns:xlink="http://www.w3.org/1999/xlink" viewBox="8.96 82.98 285.07 130.14" shape-rendering="geometricPrecision" text-rendering="geometricPrecision" project-id="4020e53434f3420198dd0366a4add1a8" export-id="08224ff160a04c1b9fa9f090874bb51d" cached="false"><path d="M9.259454,212.817401l69.002142-85.276234l42.312636,27.991436l55.98287-72.256962l52.07709,61.19058l16.27409-11.066381l48.82227,79.417561h-284.471098Z" transform="translate(.000001 0)" stroke="#000" stroke-width="0.6"/><path d="M176.557103,93.040093l6.509636,40.359744l1.95289,11.066384v17.576018l25.387581,14.321197v0l24.736618,6.509639v0l-31.897217-34.826557v-20.505354l-20.179872-16.27409-6.509636-18.226981Z" transform="translate(0 0.000003)" fill="#fffcfc" stroke="#fdfdfe" stroke-width="0.6"/><path d="M250.115991,177.014403l14.321199-.650964-14.321199-14.321202-5.207708-17.576021-22.132764,10.740906l27.340472,21.807281v0Z" transform="translate(0 0.000005)" fill="#fcf5f5" stroke="rgba(63,87,135,0)" stroke-width="0.6"/><path d="M81.516415,136.003696l-30.59529,40.522488-11.066382,14.809419h11.066382l11.066381-21.481801l14.972163-9.113487l4.556746-24.736619Z" transform="translate(-3.25482 0)" fill="#fff" stroke="#fbfbfb" stroke-width="0.6"/><path d="M169.396503,102.153586l-39.057817,53.053541L144.659885,150L150,136.003696l19.396503-33.85011Z" fill="#fffbfb" stroke="#fff" stroke-width="0.6"/><path d="M9.259455,202.830912q69.00214-85.930843,69.002142-85.930843l-.000002,11.780288" fill="none" stroke="#000" stroke-width="0.57014"/><path d="M9.259455,202.830912v9.986489-9.986489Z" fill="none" stroke="#000" stroke-width="0.57014"/><rect width="6.216066" height="2.487471" rx="0" ry="0" transform="matrix(-.883933 0.014838 0.026253 1.563918 18.98205 191.335603)" stroke-width="0"/><rect width="6.216066" height="2.487471" rx="0" ry="0" transform="matrix(-.883933 0.014838 0.026253 1.563918 36.534619 168.489921)" stroke-width="0"/><rect width="6.216066" height="2.487471" rx="0" ry="0" transform="matrix(-.883933 0.014838 0.026253 1.563918 53.340548 148.046521)" stroke-width="0"/><rect width="6.216066" height="2.487471" rx="0" ry="0" transform="matrix(-.883933 0.014838 0.026253 1.563918 69.887056 126.689138)" stroke-width="0"/><path d="M293.730553,193.280703q-48.82227-76.380634-48.82227-76.380634v16.499771" fill="none" stroke="#000" stroke-width="0.57014"/><path d="M293.730553,193.280703v19.536698q0-19.628935,0-19.536698Z" fill="none" stroke="#000" stroke-width="0.57014"/><path d="M293.730553,193.280703v19.536698q0-19.628935,0-19.536698Z" fill="none" stroke="#000" stroke-width="0.57014"/><rect width="6.216066" height="2.487471" rx="0" ry="0" transform="matrix(-.883933 0.014838 0.026253 1.563918 289.637474 180.88186)" stroke-width="0"/><rect width="6.216066" height="2.487471" rx="0" ry="0" transform="matrix(-.883933 0.014838 0.026253 1.563918 275.949329 158.749096)" stroke-width="0"/><rect width="6.216066" height="2.487471" rx="0" ry="0" transform="matrix(-.883933 0.014838 0.026253 1.563918 260.800394 136.003696)" stroke-width="0"/></svg>
